<?xml version="1.0" encoding="UTF-8"?>

<svg xmlns="http://www.w3.org/2000/svg" viewBox="0 0 1200 800" data-style="class">
<text x="600.0" y="35" font-family="Segoe UI, Arial, sans-serif" font-size="22" text-anchor="middle" fill="#222" font-weight="bold">TaskForge 类与模块关系图</text>
<g data-role="nodes">
<g data-id="ITaskStore" data-kind="interface">
<rect x="60" y="100" width="170" height="50" fill="#d4b8f0" stroke="#333" stroke-width="1.5" rx="6"/>
<text x="145.0" y="130.0" font-family="Segoe UI, Arial, sans-serif" font-size="12" text-anchor="middle" fill="#222" font-weight="bold">ITaskStore</text>
</g>
<g data-id="IRetryPolicy" data-kind="interface">
<rect x="280" y="100" width="180" height="50" fill="#d4b8f0" stroke="#333" stroke-width="1.5" rx="6"/>
<text x="370.0" y="130.0" font-family="Segoe UI, Arial, sans-serif" font-size="12" text-anchor="middle" fill="#222" font-weight="bold">IRetryPolicy</text>
</g>
<g data-id="INotifier" data-kind="interface">
<rect x="510" y="100" width="160" height="50" fill="#d4b8f0" stroke="#333" stroke-width="1.5" rx="6"/>
<text x="590.0" y="130.0" font-family="Segoe UI, Arial, sans-serif" font-size="12" text-anchor="middle" fill="#222" font-weight="bold">INotifier</text>
</g>
<g data-id="IClock" data-kind="interface">
<rect x="720" y="100" width="130" height="50" fill="#d4b8f0" stroke="#333" stroke-width="1.5" rx="6"/>
<text x="785.0" y="130.0" font-family="Segoe UI, Arial, sans-serif" font-size="12" text-anchor="middle" fill="#222" font-weight="bold">IClock</text>
</g>
<g data-id="ILogger" data-kind="interface">
<rect x="900" y="100" width="130" height="50" fill="#e0e0e0" stroke="#333" stroke-width="1.5" rx="6"/>
<text x="965.0" y="130.0" font-family="Segoe UI, Arial, sans-serif" font-size="12" text-anchor="middle" fill="#222" font-weight="bold">ILogger (未用)</text>
</g>
<g data-id="InMemoryTaskStore" data-kind="class">
<rect x="40" y="220" width="200" height="45" fill="#c8a8e8" stroke="#333" stroke-width="1.5" rx="6"/>
<text x="140.0" y="247.5" font-family="Segoe UI, Arial, sans-serif" font-size="12" text-anchor="middle" fill="#222" font-weight="bold">InMemoryTaskStore</text>
</g>
<g data-id="PersistentTaskStore" data-kind="class">
<rect x="40" y="285" width="200" height="45" fill="#ddd" stroke="#333" stroke-width="1.5" rx="6"/>
<text x="140.0" y="312.5" font-family="Segoe UI, Arial, sans-serif" font-size="12" text-anchor="middle" fill="#222" font-weight="bold">PersistentTaskStore</text>
</g>
<g data-id="FixedBackoffPolicy" data-kind="class">
<rect x="270" y="220" width="200" height="45" fill="#a8d8a8" stroke="#333" stroke-width="1.5" rx="6"/>
<text x="370.0" y="247.5" font-family="Segoe UI, Arial, sans-serif" font-size="12" text-anchor="middle" fill="#222" font-weight="bold">FixedBackoffPolicy</text>
</g>
<g data-id="ExponentialBackoffPolicy" data-kind="class">
<rect x="270" y="285" width="220" height="45" fill="#a8d8a8" stroke="#333" stroke-width="1.5" rx="6"/>
<text x="380.0" y="312.5" font-family="Segoe UI, Arial, sans-serif" font-size="12" text-anchor="middle" fill="#222" font-weight="bold">ExponentialBackoffPolicy</text>
</g>
<g data-id="ConsoleNotifier" data-kind="class">
<rect x="510" y="220" width="170" height="45" fill="#a8d8a8" stroke="#333" stroke-width="1.5" rx="6"/>
<text x="595.0" y="247.5" font-family="Segoe UI, Arial, sans-serif" font-size="12" text-anchor="middle" fill="#222" font-weight="bold">ConsoleNotifier</text>
</g>
<g data-id="CallbackNotifier" data-kind="class">
<rect x="510" y="285" width="170" height="45" fill="#a8d8a8" stroke="#333" stroke-width="1.5" rx="6"/>
<text x="595.0" y="312.5" font-family="Segoe UI, Arial, sans-serif" font-size="12" text-anchor="middle" fill="#222" font-weight="bold">CallbackNotifier</text>
</g>
<g data-id="CompositeNotifier" data-kind="class">
<rect x="510" y="350" width="180" height="45" fill="#a8d8a8" stroke="#333" stroke-width="1.5" rx="6"/>
<text x="600.0" y="377.5" font-family="Segoe UI, Arial, sans-serif" font-size="12" text-anchor="middle" fill="#222" font-weight="bold">CompositeNotifier</text>
</g>
<g data-id="SystemClock" data-kind="class">
<rect x="720" y="220" width="150" height="45" fill="#a8d8a8" stroke="#333" stroke-width="1.5" rx="6"/>
<text x="795.0" y="247.5" font-family="Segoe UI, Arial, sans-serif" font-size="12" text-anchor="middle" fill="#222" font-weight="bold">SystemClock</text>
</g>
<g data-id="ConsoleLogger" data-kind="class">
<rect x="900" y="220" width="150" height="45" fill="#e0e0e0" stroke="#333" stroke-width="1.5" rx="6"/>
<text x="975.0" y="247.5" font-family="Segoe UI, Arial, sans-serif" font-size="12" text-anchor="middle" fill="#222" font-weight="bold">ConsoleLogger</text>
</g>
<g data-id="Scheduler" data-kind="class">
<rect x="350" y="460" width="200" height="55" fill="#ffd699" stroke="#333" stroke-width="1.5" rx="6"/>
<text x="450.0" y="483.5" font-family="Segoe UI, Arial, sans-serif" font-size="12" text-anchor="middle" fill="#222" font-weight="bold">Scheduler</text>
<text x="450.0" y="499.5" font-family="Segoe UI, Arial, sans-serif" font-size="9" text-anchor="middle" fill="#555" font-weight="normal">编排核心</text>
</g>
<g data-id="WorkerPool" data-kind="class">
<rect x="600" y="460" width="160" height="50" fill="#a8d8a8" stroke="#333" stroke-width="1.5" rx="6"/>
<text x="680.0" y="490.0" font-family="Segoe UI, Arial, sans-serif" font-size="12" text-anchor="middle" fill="#222" font-weight="bold">WorkerPool</text>
</g>
<g data-id="Worker" data-kind="class">
<rect x="600" y="540" width="140" height="45" fill="#a8d8a8" stroke="#333" stroke-width="1.5" rx="6"/>
<text x="670.0" y="567.5" font-family="Segoe UI, Arial, sans-serif" font-size="12" text-anchor="middle" fill="#222" font-weight="bold">Worker</text>
</g>
<g data-id="TaskQueue" data-kind="class">
<rect x="820" y="460" width="160" height="50" fill="#a8d8a8" stroke="#333" stroke-width="1.5" rx="6"/>
<text x="900.0" y="490.0" font-family="Segoe UI, Arial, sans-serif" font-size="12" text-anchor="middle" fill="#222" font-weight="bold">TaskQueue</text>
</g>
<g data-id="MetricsCollector" data-kind="class">
<rect x="820" y="540" width="180" height="45" fill="#a8d8a8" stroke="#333" stroke-width="1.5" rx="6"/>
<text x="910.0" y="567.5" font-family="Segoe UI, Arial, sans-serif" font-size="12" text-anchor="middle" fill="#222" font-weight="bold">MetricsCollector</text>
</g>
<g data-id="EngineConfig" data-kind="class">
<rect x="1000" y="460" width="140" height="50" fill="#c8a8e8" stroke="#333" stroke-width="1.5" rx="6"/>
<text x="1070.0" y="490.0" font-family="Segoe UI, Arial, sans-serif" font-size="12" text-anchor="middle" fill="#222" font-weight="bold">EngineConfig</text>
</g>
<g data-id="Task" data-kind="class">
<rect x="1000" y="540" width="100" height="45" fill="#a8d8a8" stroke="#333" stroke-width="1.5" rx="6"/>
<text x="1050.0" y="567.5" font-family="Segoe UI, Arial, sans-serif" font-size="12" text-anchor="middle" fill="#222" font-weight="bold">Task</text>
</g>
<g data-id="TaskResult" data-kind="struct">
<rect x="1000" y="610" width="120" height="40" fill="#ffcc80" stroke="#333" stroke-width="1.5" rx="6"/>
<text x="1060.0" y="635.0" font-family="Segoe UI, Arial, sans-serif" font-size="12" text-anchor="middle" fill="#222" font-weight="bold">TaskResult</text>
</g>
</g>
<g data-role="edges">
<line data-from="InMemoryTaskStore" data-to="ITaskStore" data-kind="implements" x1="140" y1="220" x2="145" y2="150" stroke="#555" stroke-width="1.5"/>
<polygon points="148.41985839941967,158.2646577985975 145,150 140.44018880077377,157.69468139869423" fill="#555"/>
<line data-from="PersistentTaskStore" data-to="ITaskStore" data-kind="implements" x1="140" y1="285" x2="145" y2="150" stroke="#555" stroke-width="1.5"/>
<polygon points="148.70116605098804,158.14256531217367 145,150 140.7066473808539,157.8464720280946" fill="#555"/>
<line data-from="FixedBackoffPolicy" data-to="IRetryPolicy" data-kind="implements" x1="370" y1="220" x2="370" y2="150" stroke="#555" stroke-width="1.5"/>
<polygon points="374.0,158.0 370,150 366.0,158.0" fill="#555"/>
<line data-from="ExponentialBackoffPolicy" data-to="IRetryPolicy" data-kind="implements" x1="380" y1="285" x2="370" y2="150" stroke="#555" stroke-width="1.5"/>
<polygon points="374.5800445019494,157.6826552935924 370,150 366.60190246629566,158.27362877771492" fill="#555"/>
<line data-from="ConsoleNotifier" data-to="INotifier" data-kind="implements" x1="595" y1="220" x2="590" y2="150" stroke="#555" stroke-width="1.5"/>
<polygon points="594.5598111992261,157.69468139869423 590,150 586.5801416005803,158.2646577985975" fill="#555"/>
<line data-from="CallbackNotifier" data-to="INotifier" data-kind="implements" x1="595" y1="285" x2="590" y2="150" stroke="#555" stroke-width="1.5"/>
<polygon points="594.293352619146,157.8464720280946 590,150 586.298833949012,158.14256531217367" fill="#555"/>
<line data-from="CompositeNotifier" data-to="INotifier" data-kind="implements" x1="600" y1="350" x2="590" y2="150" stroke="#555" stroke-width="1.5"/>
<polygon points="594.3945102910625,157.7902682432472 590,150 586.4044915800398,158.18976917879834" fill="#555"/>
<line data-from="SystemClock" data-to="IClock" data-kind="implements" x1="795" y1="220" x2="785" y2="150" stroke="#555" stroke-width="1.5"/>
<polygon points="790.0911688245432,157.3539105243401 785,150 782.1715728752539,158.48528137423858" fill="#555"/>
<line data-from="ConsoleLogger" data-to="ILogger" data-kind="implements" x1="975" y1="220" x2="965" y2="150" stroke="#555" stroke-width="1.5"/>
<polygon points="970.0911688245432,157.3539105243401 965,150 962.1715728752539,158.48528137423858" fill="#555"/>
<line data-from="Scheduler" data-to="TaskQueue" data-kind="composes" x1="550" y1="487" x2="820" y2="485" stroke="#555" stroke-width="1.5"/>
<polygon points="812.0298482864853,489.0591478987045 820,485 811.9705906529275,481.0593673684109" fill="#555"/>
<line data-from="Scheduler" data-to="WorkerPool" data-kind="composes" x1="550" y1="480" x2="600" y2="480" stroke="#555" stroke-width="1.5"/>
<polygon points="592.0,484.0 600,480 592.0,476.0" fill="#555"/>
<line data-from="WorkerPool" data-to="Worker" data-kind="composes" x1="680" y1="510" x2="670" y2="540" stroke="#555" stroke-width="1.5"/>
<polygon points="668.7350889359326,531.1456225515285 670,540 676.3245553203368,533.6754446796633" fill="#555"/>
<line data-from="CompositeNotifier" data-to="INotifier" data-kind="aggregates" x1="600" y1="375" x2="590" y2="150" stroke="#228B22" stroke-width="1.5"/>
<polygon points="594.3512601348306,157.81450799724678 590,150 586.359149683101,158.16971290621257" fill="#228B22"/>
<line data-from="Scheduler" data-to="ITaskStore" data-kind="uses" x1="400" y1="460" x2="145" y2="150" stroke="#4169E1" stroke-width="1.5"/>
<polygon points="153.17132301299964,153.6372352435913 145,150 146.99300561292674,158.7193995565545" fill="#4169E1"/>
<line data-from="Scheduler" data-to="IRetryPolicy" data-kind="uses" x1="420" y1="460" x2="370" y2="150" stroke="#4169E1" stroke-width="1.5"/>
<polygon points="375.2228239934476,157.26099921040267 370,150 367.3248950277464,158.53485872099967" fill="#4169E1"/>
<line data-from="Scheduler" data-to="INotifier" data-kind="uses" x1="470" y1="460" x2="590" y2="150" stroke="#4169E1" stroke-width="1.5"/>
<polygon points="590.8423195726347,158.90452119642356 590,150 583.381774786442,156.01656837596187" fill="#4169E1"/>
<line data-from="Scheduler" data-to="IClock" data-kind="uses" x1="500" y1="460" x2="785" y2="150" stroke="#4169E1" stroke-width="1.5"/>
<polygon points="782.5302763813388,158.59653798033992 785,150 776.6409354445314,153.182143893275" fill="#4169E1"/>
<line data-from="Scheduler" data-to="MetricsCollector" data-kind="uses" x1="530" y1="487" x2="910" y2="562" stroke="#555" stroke-width="1.5"/>
<polygon points="901.376875646202,564.3752318579324 910,562 902.9259399013754,556.526639631721" fill="#555"/>
<line data-from="Scheduler" data-to="EngineConfig" data-kind="uses" x1="550" y1="480" x2="1070" y2="485" stroke="#555" stroke-width="1.5"/>
<polygon points="1061.9619100362509,488.92289558039425 1070,485 1062.038829557435,480.9232653772373" fill="#555"/>
<line data-from="Worker" data-to="TaskQueue" data-kind="uses" x1="670" y1="562" x2="900" y2="485" stroke="#4169E1" stroke-width="1.5"/>
<polygon points="893.6836958828668,491.3327957727915 900,485 891.1439809114869,483.74663416996833" fill="#4169E1"/>
<line data-from="TaskQueue" data-to="Task" data-kind="depends" x1="940" y1="485" x2="1050" y2="540" stroke="#555" stroke-width="1.5"/>
<polygon points="1041.055728090001,540.0 1050,540 1044.6334368540004,532.8445824720006" fill="#555"/>
<line data-from="Worker" data-to="TaskResult" data-kind="depends" x1="720" y1="562" x2="1060" y2="630" stroke="#555" stroke-width="1.5"/>
<polygon points="1051.3708900539198,632.3533936216583 1060,630 1052.9398191350253,624.5087482161308" fill="#555"/>
</g>
</svg>